# xmcd
#
# Track frame offsets:
#	150
#	14564
#	30122
#	48130
#	63192
#	77643
#	95476
#	105258
#	120474
#	134857
#	152381
#	165818
#	181700
#	197935
#	219158
#
# Disc length: 3180 seconds
#
# Revision: 0
# Processed by: cddbd v1.5.2PL0 Copyright (c) Steve Scherf et al.
# Submitted via: EasyCDDAExtractor 16.0.8.2
#
DISCID=aa0c6a0f
DTITLE=Συλλογικός δίσκος - Τα πανηγύρια τού Αιγαίου 3
DYEAR=2013
DGENRE=Παραδοσιακή
TTITLE0=Λαρδόπουλος Φίλιππας - Άρχεψε γλώσσα μ', άρχεψε [Τήλος]
TTITLE1=Κλαδάκης Γιάννης - Ω Παναγιά μου Σκιαενή [Ρόδος]
TTITLE2=Κοντός Κώστας - Η μαυρομάτα [Σύμη]
TTITLE3=Περσελής Δημήτρης - Περνούν τα σύννεφα [Κάσος]
TTITLE4=Αναστασιάδης Ηλίας - Απ' της Καρπάθου τα βουνά [Κάρπαθος]
TTITLE5=Αναστασιάδης Ηλίας - Ζερβός Καρπάθου [Κάρπαθος]
TTITLE6=Σινοπούλου Ουρανία - Ο Αμπάς [Πάτμος]
TTITLE7=Κουλλιά Καίτη - Γιάλα [Πανδωδεκανησιακό]
TTITLE8=Χατζηγιάννης Χρήστος - Της Μπαρμπαριάς [Χάλκη]
TTITLE9=Κοντός Κώστας - Ω Παερμιώτη Αρχάγγελε [Σύμη]
TTITLE10=Άνευ ερμηνευτού - Συμιακή σούστα [Σύμη, βιολί Σ. Κουκουλάρη]
TTITLE11=Κουλλιά Καίτη - Βάρκα μου μπογιατισμένη [Κάλυμνος]
TTITLE12=Άνευ ερμηνευτού - Αποστολίτικο [Νίσυρος, βιολί Γ. Χατζηπέτρος]
TTITLE13=Τσουρού Δέσποινα - Έναν καιρό ήμουν άγγελος [Προποντίδα-Χίος]
TTITLE14=Χορωδία - Ήθελα νά 'χα δυό καρδιές [Αστυπάλαια]
EXTD=
EXTT0=
EXTT1=
EXTT2=
EXTT3=
EXTT4=
EXTT5=
EXTT6=
EXTT7=
EXTT8=
EXTT9=
EXTT10=
EXTT11=
EXTT12=
EXTT13=
EXTT14=
PLAYORDER=
